<svg width="312" height="266" viewBox="0 0 312 266" fill="none" xmlns="http://www.w3.org/2000/svg">
<path d="M52.1 132.9H133V52.1001C88.3 52.1001 52.1 88.3001 52.1 133V132.9Z" fill="#F2F2F2"/>
<path d="M0 132.9C0 59.5 59.5 0 132.9 0V52.1C88.2 52.1 52 88.3 52 133H0V132.9Z" fill="#2B2926"/>
<path d="M178.2 52.1001V133H259.1C259.1 88.3001 222.9 52.1001 178.2 52.1001Z" fill="#FFC72C"/>
<path d="M178.2 0C251.6 0 311.1 59.5 311.1 132.9H259C259 88.2 222.8 52 178.1 52V0H178.2Z" fill="#E94E1B"/>
<path d="M52.1 132.9C52.1 177.6 88.3 213.8 133 213.8V132.9H52.1Z" fill="#919191"/>
<path d="M52.1 132.9C52.1 177.6 88.3 213.8 133 213.8V265.9C59.5 265.9 0 206.4 0 132.9H52.1Z" fill="#2B2926"/>
<path d="M178.2 52.1001H132.9V132.9H178.2V52.1001Z" fill="#D9A328"/>
<path d="M178.2 0H132.9V52.1H178.2V0Z" fill="#C0421C"/>
<path d="M99.6 120.4C110.48 120.4 119.3 111.58 119.3 100.7C119.3 89.82 110.48 81 99.6 81C88.72 81 79.9 89.82 79.9 100.7C79.9 111.58 88.72 120.4 99.6 120.4Z" fill="#2B2926"/>
</svg>
