<?xml version="1.0" encoding="UTF-8"?>
<svg id="Layer_1" xmlns="http://www.w3.org/2000/svg" version="1.1" viewBox="0 0 660 266.5">
  <!-- Generator: Adobe Illustrator 29.7.1, SVG Export Plug-In . SVG Version: 2.1.1 Build 8)  -->
  <defs>
    <style>
      .st0 {
        fill: #3fa34d;
      }

      .st1 {
        fill: #ffc72c;
      }

      .st2 {
        fill: #919191;
      }

      .st3 {
        fill: #2b2926;
      }

      .st4 {
        fill: #e94e1b;
      }

      .st5 {
        fill: #c0421c;
      }

      .st6 {
        fill: #f2f2f2;
      }

      .st7 {
        fill: #d9a328;
      }
    </style>
  </defs>
  <g>
    <g>
      <path class="st3" d="M181,156.5h51.5c23.5,0,33.4,9.6,33.4,27.4s-9.4,23.4-23.4,23.4-15.7-5.8-15.7-14.4,1.6-8.5,1.6-12.6-1.4-6.4-4.3-6.4-4.5,2.3-4.5,7.2c0,13.2.6,30.6,2.6,45h-41.2c3.5-26.7,3.5-49.9,0-69.6Z"/>
      <path class="st3" d="M327.9,179.2c.8,1.9,1.7,3.1,3.4,3.1s2.4-1.2,2.4-2.9c0-2.8-.6-9.2-1.3-13.7h38c-2,20.1-1.5,40.2,1.2,60.3h-40.2c.6-3.1,1.2-9,1.2-12.4s-.7-2.9-2.2-2.9-2.2.9-3,2.4c-4.2,7.3-11,15.2-23.9,15.2s-26.4-12.1-26.4-31.2,10.9-33.8,28.1-33.8,19.7,8.7,22.8,15.8ZM321.2,202.9c5.1,0,9.2-4.6,9.2-9.6s-2.2-5.6-5.6-5.6c-5.2,0-9.4,4.5-9.4,9.4s2.3,5.8,5.8,5.8Z"/>
      <path class="st3" d="M428.1,214.2c0-2.1-1-3.5-2.6-3.5s-2.9,1.2-3.7,3c-3.1,7.1-8.4,14.6-20.1,14.6s-20.9-8.6-20.9-25.4,1.5-25.7-.9-37.2h40c-1.9,13.6-2.7,24.1-2.7,30.3s2.8,6.8,5.5,6.8,5.7-1.9,5.7-8-.6-17.7-2.6-29.1h40.5c-1.5,20.1-2,40.2-.5,60.3h-39.4c.8-3.9,1.6-9.4,1.6-11.8Z"/>
      <path class="st3" d="M514.8,226.1h-40c2.3-24,2.3-57.2,0-77.7h40c-2.3,20.5-2.3,53.7,0,77.7Z"/>
      <path class="st3" d="M523.1,165.8h40c-2.3,20.1-2.3,40.2,0,60.3h-40c2.3-20.1,2.3-40.2,0-60.3Z"/>
      <path class="st3" d="M610.5,177.6c0,2.1,1,3.5,2.6,3.5s2.9-1.2,3.7-3c3.1-7.1,8.4-14.6,20.1-14.6s20.9,8.6,20.9,25.4-2.7,25.7.9,37.2h-40c1.9-13.6,2.7-24.1,2.7-30.3s-2.8-6.8-5.5-6.8-5.7,1.9-5.7,8,.6,17.7,2.6,29.1h-40c2-20.1,1.5-40.2-1.2-60.3h40.6c-.8,3.9-1.6,9.4-1.6,11.8Z"/>
    </g>
    <g>
      <path class="st7" d="M200.7,250.8c0,1.1-.2,2.1-.7,3-.5.9-1.1,1.6-1.9,2.3-.8.6-1.8,1.1-2.9,1.4-1.1.3-2.3.5-3.5.5h-6.4v6.2h-4.8v-20.8h11c1.2,0,2.4.2,3.5.5,1.1.3,2.1.8,2.9,1.4s1.5,1.4,2,2.3.7,2,.7,3.1ZM195.9,250.9c0-.5,0-.9-.3-1.3-.2-.4-.5-.8-.8-1.2-.4-.3-.8-.6-1.4-.8-.5-.2-1.1-.3-1.8-.3h-6.3v7.2h5.7c.7,0,1.3,0,1.9-.3.6-.2,1.1-.4,1.6-.8.4-.3.8-.7,1.1-1.2.3-.4.4-.9.4-1.4Z"/>
      <path class="st7" d="M232.8,264.2c-.9-1.1-1.8-2.2-2.6-3.3-.4-.4-.7-.9-1.1-1.4-.4-.5-.8-.9-1.1-1.4s-.7-.8-1.1-1.2c-.3-.4-.6-.7-.8-1h-4v8.3h-4.8v-20.8h12.2c1.2,0,2.4.1,3.4.4s1.9.7,2.7,1.2c.8.5,1.3,1.2,1.8,1.9.4.8.6,1.6.6,2.5s-.2,1.6-.5,2.3c-.4.7-.9,1.4-1.5,1.9-.6.6-1.4,1-2.2,1.4-.8.4-1.7.6-2.7.7h.4c0,.1,6.3,8.1,6.3,8.1v.4h-4.8ZM233.5,249.6c0-.8-.3-1.4-.9-1.9-.6-.5-1.6-.8-3-.8h-7.6v5.5h7.2c1.3,0,2.4-.2,3.1-.8.7-.6,1.1-1.2,1.1-2Z"/>
      <path class="st7" d="M255.6,264.2v-20.8h18.4v3.4h-13.6v5.4h11.6v3.3h-11.6v5.2h14v3.4h-18.8Z"/>
      <path class="st7" d="M319.2,264.2h-4.2l-1.4-12.3h0c0,0-8,11.9-8,11.9h-1.4l-7.6-11.9h0c0,0-1.3,12.2-1.3,12.2h-4.2l1.8-20.8h2.8l9.5,14.3h0l9.6-14.3h2.6l2,20.8Z"/>
      <path class="st7" d="M337.7,264.2v-20.8h4.7v20.8h-4.7Z"/>
      <path class="st7" d="M360.1,243.4h4.7v10.5c0,1.3.2,2.4.5,3.3s.8,1.6,1.3,2.1c.6.5,1.2.9,2,1.1s1.6.3,2.6.3,1.7-.1,2.5-.4c.8-.3,1.4-.7,2-1.2.6-.6,1-1.3,1.3-2.2.3-.9.5-1.9.5-3.1v-10.4s4.7,0,4.7,0v10.2c0,1.7-.3,3.2-.8,4.6-.5,1.4-1.2,2.5-2.2,3.5-.9,1-2.1,1.7-3.4,2.2-1.4.5-2.9.8-4.6.8s-3.3-.3-4.6-.8c-1.4-.5-2.5-1.2-3.5-2.2-1-.9-1.7-2.1-2.2-3.4-.5-1.3-.7-2.8-.7-4.4v-10.5Z"/>
      <path class="st7" d="M426.8,264.2h-4.2l-1.4-12.3h0c0,0-8,11.9-8,11.9h-1.4l-7.6-11.9h0c0,0-1.3,12.2-1.3,12.2h-4.2l1.8-20.8h2.8l9.5,14.3h0l9.6-14.3h2.6l2,20.8Z"/>
      <path class="st7" d="M471.7,246.8v5.8h11.2v3.4h-11.3v8.2c0,0-4.7,0-4.7,0v-20.8h18.3v3.4h-13.5Z"/>
      <path class="st7" d="M517,264.2c-.9-1.1-1.8-2.2-2.6-3.3-.4-.4-.7-.9-1.1-1.4-.4-.5-.8-.9-1.1-1.4s-.7-.8-1.1-1.2c-.3-.4-.6-.7-.8-1h-4v8.3h-4.8v-20.8h12.2c1.2,0,2.4.1,3.4.4s1.9.7,2.7,1.2c.8.5,1.3,1.2,1.8,1.9.4.8.6,1.6.6,2.5s-.2,1.6-.5,2.3c-.4.7-.9,1.4-1.5,1.9-.6.6-1.4,1-2.2,1.4-.8.4-1.7.6-2.7.7h.4c0,.1,6.3,8.1,6.3,8.1v.4h-4.8ZM517.6,249.6c0-.8-.3-1.4-.9-1.9-.6-.5-1.6-.8-3-.8h-7.6v5.5h7.2c1.3,0,2.4-.2,3.1-.8.7-.6,1.1-1.2,1.1-2Z"/>
      <path class="st7" d="M539.4,243.4h4.7v10.5c0,1.3.2,2.4.5,3.3s.8,1.6,1.3,2.1c.6.5,1.2.9,2,1.1s1.6.3,2.6.3,1.7-.1,2.5-.4c.8-.3,1.4-.7,2-1.2.6-.6,1-1.3,1.3-2.2.3-.9.5-1.9.5-3.1v-10.4s4.7,0,4.7,0v10.2c0,1.7-.3,3.2-.8,4.6-.5,1.4-1.2,2.5-2.2,3.5-.9,1-2.1,1.7-3.4,2.2-1.4.5-2.9.8-4.6.8s-3.3-.3-4.6-.8c-1.4-.5-2.5-1.2-3.5-2.2-1-.9-1.7-2.1-2.2-3.4-.5-1.3-.7-2.8-.7-4.4v-10.5Z"/>
      <path class="st7" d="M579,264.2v-20.8h4.7v20.8h-4.7Z"/>
      <path class="st7" d="M614.5,246.8v17.4h-4.8v-17.4h-9.1v-3.4h22.9v3.4h-9Z"/>
      <path class="st7" d="M659.8,257.9c0,1.3-.4,2.4-1.1,3.3s-1.6,1.5-2.7,2-2.2.9-3.5,1.1c-1.2.2-2.4.3-3.4.3s-1.8,0-2.6-.2c-.8-.1-1.6-.3-2.4-.5-.8-.2-1.5-.5-2.3-.9s-1.6-.8-2.5-1.3l1.5-3.3c1.7.8,3.2,1.5,4.5,1.9,1.3.4,2.4.7,3.5.7s1.3,0,2.1-.2c.7-.1,1.4-.3,2-.5.6-.2,1.2-.6,1.6-1s.6-.9.6-1.5-.2-.9-.5-1.2c-.3-.3-.8-.5-1.4-.7-.6-.2-1.3-.4-2.1-.5-.8-.1-1.7-.2-2.6-.3-1.1-.1-2.2-.3-3.3-.4-1.1-.2-2.1-.5-3-.9-.9-.4-1.6-1-2.2-1.7-.6-.7-.9-1.7-.9-2.9s.4-2.4,1.1-3.2c.7-.8,1.6-1.5,2.6-1.9,1-.5,2.2-.8,3.4-1s2.3-.3,3.3-.3c3.5,0,6.7.9,9.8,2.6l-1.4,3c-1.3-.7-2.7-1.2-4.2-1.6s-2.9-.5-4.2-.5-2,0-2.7.2c-.7.2-1.3.4-1.8.6-.4.3-.8.5-1,.9-.2.3-.3.6-.3,1,0,.5.2.9.7,1.2s1.1.5,1.8.7c.7.1,1.4.2,2,.3.7,0,1.2,0,1.6.1.7,0,1.4.1,2.2.2.8,0,1.5.2,2.3.4.7.2,1.5.4,2.1.7.7.3,1.3.7,1.8,1.1.5.5.9,1,1.2,1.7.3.7.4,1.4.4,2.3Z"/>
    </g>
  </g>
  <g>
    <path class="st6" d="M52.1,132.9h80.9V52.1c-44.7,0-80.9,36.2-80.9,80.9Z"/>
    <path class="st3" d="M0,132.9C0,59.5,59.5,0,132.9,0v52.1c-44.7,0-80.9,36.2-80.9,80.9H0Z"/>
    <path class="st1" d="M178.2,52.1v80.9h80.9c0-44.7-36.2-80.9-80.9-80.9Z"/>
    <path class="st4" d="M178.2,0c73.4,0,132.9,59.5,132.9,132.9h-52.1c0-44.7-36.2-80.9-80.9-80.9V0Z"/>
    <path class="st2" d="M52.1,132.9c0,44.7,36.2,80.9,80.9,80.9v-80.9H52.1Z"/>
    <path class="st3" d="M52.1,132.9c0,44.7,36.2,80.9,80.9,80.9v52.1C59.5,265.9,0,206.4,0,132.9h52.1Z"/>
    <rect class="st7" x="132.9" y="52.1" width="45.3" height="80.8"/>
    <rect class="st5" x="132.9" y="0" width="45.3" height="52.1"/>
    <circle class="st3" cx="99.6" cy="100.7" r="19.7"/>
  </g>
  <g>
    <path class="st0" d="M561.2,143.4c-7.9,7.9-18.6,11.3-28.8,10.1-1.1-10.3,2.2-21,10.1-28.8,3.5-3.5,7.5-6.1,11.8-7.8,5.4-2.2,11.3-3,17-2.3,1.1,10.3-2.2,21-10.1,28.8Z"/>
    <path class="st0" d="M561.2,143.4c-7.9,7.9-18.6,11.3-28.8,10.1-1.1-10.3,2.2-21,10.1-28.8,3.5-3.5,7.5-6.1,11.8-7.8,5.4-2.2,11.3-3,17-2.3,1.1,10.3-2.2,21-10.1,28.8Z"/>
  </g>
  <g>
    <path class="st0" d="M539.6,121.9c-6.5,6.5-10.5,14.9-11.3,23.8-2.6-7-2.9-14.8-.6-22.4,3.2-10.7,11-18.7,20.6-22.5,2.5,3.6,4.3,7.7,5.3,12.1-5.2,1.9-9.9,5-14,9Z"/>
    <path class="st0" d="M553,131c-3.2,10.7-11,18.7-20.6,22.5-1.1-10.3,2.2-21,10.1-28.8,3.5-3.5,7.5-6.1,11.8-7.8.5,4.6.1,9.4-1.3,14.1Z"/>
  </g>
</svg>